<svg xmlns="http://www.w3.org/2000/svg" width="128" height="128" viewBox="0 0 128 128">
  <rect width="128" height="128" rx="24" fill="#1a73e8"/>
  <!-- 报纸背景 -->
  <rect x="24" y="18" width="80" height="92" rx="6" fill="white"/>
  <!-- 标题栏 -->
  <rect x="32" y="28" width="64" height="8" rx="3" fill="#1a73e8"/>
  <!-- 内容行 -->
  <rect x="32" y="42" width="64" height="5" rx="2" fill="#e0e0e0"/>
  <rect x="32" y="52" width="64" height="5" rx="2" fill="#e0e0e0"/>
  <rect x="32" y="62" width="64" height="5" rx="2" fill="#e0e0e0"/>
  <rect x="32" y="72" width="40" height="5" rx="2" fill="#e0e0e0"/>
  <!-- 股票箭头 -->
  <polygon points="88,86 100,72 96,72 96,56 92,56 92,72 88,72" fill="#ff4757"/>
  <!-- 底部装饰线 -->
  <rect x="32" y="92" width="20" height="4" rx="2" fill="#2ed573"/>
  <rect x="56" y="92" width="20" height="4" rx="2" fill="#ff4757"/>
  <rect x="80" y="92" width="16" height="4" rx="2" fill="#3498db"/>
</svg>